HIERARCHY
ROOT ui
{
	 OFFSET 0 0 0
	 CHANNELS 3 XPosition YPosition Z Position
	 EndSite
	 {
	 OFFSET 0 -1 0
	 }
}
ROOT li
{
	 OFFSET 0 0 0
	 CHANNELS 3 XPosition YPosition Z Position
	 EndSite
	 {
	 OFFSET 0 -1 0
	 }
}
ROOT ul
{
	 OFFSET 0 0 0
	 CHANNELS 3 XPosition YPosition Z Position
	 EndSite
	 {
	 OFFSET 0 -1 0
	 }
}
ROOT ll
{
	 OFFSET 0 0 0
	 CHANNELS 3 XPosition YPosition Z Position
	 EndSite
	 {
	 OFFSET 0 -1 0
	 }
}
ROOT tt
{
	 OFFSET 0 0 0
	 CHANNELS 3 XPosition YPosition Z Position
	 EndSite
	 {
	 OFFSET 0 -1 0
	 }
}
ROOT tb
{
	 OFFSET 0 0 0
	 CHANNELS 3 XPosition YPosition Z Position
	 EndSite
	 {
	 OFFSET 0 -1 0
	 }
}
ROOT td
{
	 OFFSET 0 0 0
	 CHANNELS 3 XPosition YPosition Z Position
	 EndSite
	 {
	 OFFSET 0 -1 0
	 }
}
ROOT v
{
	 OFFSET 0 0 0
	 CHANNELS 3 XPosition YPosition Z Position
	 EndSite
	 {
	 OFFSET 0 -1 0
	 }
}
ROOT bn
{
	 OFFSET 0 0 0
	 CHANNELS 3 XPosition YPosition Z Position
	 EndSite
	 {
	 OFFSET 0 -1 0
	 }
}
MOTION
Frames: 19
Frame Time: 0.002
-0.06528182220458985	0.0034592509269714355	0		0.43415716552734374	-2.474192138671875	0		-0.9894956665039063	0.3341536865234375	0		-0.330661865234375	-3.13296142578125	0		2.1871806640625	-0.590893310546875	0		3.58265966796875	-0.027454605102539064	0		4.9407724609375	-0.09753289794921875	0		5.89756201171875	0.3282554931640625	0		-0.25121739196777343	5.96385791015625	0		
0.011822851181030273	0.0013276419639587402	0		0.45723379516601564	-2.481515380859375	0		-1.0003739013671875	0.3343001708984375	0		-0.47312469482421876	-3.10885498046875	0		2.20224609375	-0.5960599365234375	0		3.595786865234375	-0.02756150245666504	0		4.94399072265625	-0.09146294403076172	0		5.89765380859375	0.3284917297363281	0		-0.11889595031738281	5.984908203125	0		
-0.07217082214355469	-0.003424721956253052	0		0.4293726806640625	-2.48108447265625	0		-1.0143377075195312	0.3314954833984375	0		-0.34218194580078126	-3.12378466796875	0		2.2373251953125	-0.5975220947265625	0		3.591784912109375	-0.03342026519775391	0		4.97282421875	-0.10877953338623046	0		5.9074375	0.2851122436523438	0		-0.30148629760742185	5.9486005859375	0		
0.007895660877227784	-0.002591754913330078	0		0.43832949829101564	-2.4901962890625	0		-1.0693067626953126	0.33129876708984374	0		-0.489872802734375	-3.10860205078125	0		2.24755712890625	-0.5856184692382812	0		3.588758056640625	-0.038299095153808596	0		4.9718427734375	-0.11066330718994141	0		5.899826171875	0.3184640197753906	0		-0.31850155639648436	5.95185693359375	0		
0.015012077331542969	0.004319960117340088	0		0.44448385620117187	-2.483263427734375	0		-0.99518798828125	0.3382088928222656	0		-0.4157899169921875	-3.107682373046875	0		2.279429931640625	-0.5960383911132813	0		3.650589599609375	-0.0511395149230957	0		4.9949443359375	-0.10491121673583985	0		5.9035078125	0.3358173522949219	0		-0.235278076171875	5.97164501953125	0		
0.015005792617797852	0.004339188098907471	0		0.45956491088867185	-2.479459716796875	0		-1.0102407836914062	0.3354365539550781	0		-0.45548965454101564	-3.089082763671875	0		2.2914443359375	-0.5951680908203125	0		3.6456875	-0.044003448486328124	0		5.012908203125	-0.1070957489013672	0		5.90350439453125	0.3359749450683594	0		-0.2505021057128906	5.9618828125	0		
0.011944441795349122	0.0014064550399780274	0		0.465377685546875	-2.49251953125	0		-0.9413275146484374	0.3304377746582031	0		-0.3355516357421875	-3.094825439453125	0		2.311473876953125	-0.5924190673828125	0		3.66537451171875	-0.06423999786376954	0		5.027787109375	-0.11424822235107422	0		5.90468798828125	0.2979981689453125	0		-0.25154283142089845	5.96391748046875	0		
0.004819293022155762	-0.005464198112487793	0		0.4633383483886719	-2.4944619140625	0		-1.0194026489257813	0.3276039123535156	0		-0.46532455444335935	-3.07789501953125	0		2.3295986328125	-0.582646484375	0		3.6733212890625	-0.06631233978271485	0		5.0457333984375	-0.11646025085449219	0		5.905353515625	0.29288134765625	0		-0.29985601806640627	5.9466484375	0		
0.00783733892440796	-0.002480504035949707	0		0.4383773498535156	-2.490066650390625	0		-1.00856201171875	0.3184701538085937	0		-0.46908160400390625	-3.059810791015625	0		2.356453369140625	-0.5910108032226562	0		3.718173583984375	-0.07493902587890625	0		5.0685439453125	-0.12776195526123046	0		5.90116064453125	0.3103937683105469	0		-0.28472964477539064	5.957455078125	0		
0.011868395805358888	0.0014903199672698974	0		0.44038739013671874	-2.487067626953125	0		-1.01439697265625	0.33158944702148435	0		-0.5258465576171875	-3.04094482421875	0		2.37273095703125	-0.57022412109375	0		3.72121923828125	-0.06996339416503906	0		5.07569140625	-0.11584934997558594	0		5.90114111328125	0.31041864013671877	0		-0.28474118041992186	5.95748583984375	0		
0.014882111549377441	0.004477900981903076	0		0.4652654113769531	-2.492405029296875	0		-1.0194830322265624	0.3277018127441406	0		-0.45391839599609374	-3.042966552734375	0		2.39082763671875	-0.5614724731445313	0		3.75796435546875	-0.08549678802490235	0		5.09365869140625	-0.11611398315429687	0		5.90477978515625	0.3258499755859375	0		-0.2506634826660156	5.96201953125	0		
0.007743234157562256	-0.0023845939636230468	0		0.42936981201171875	-2.48084765625	0		-1.0235750122070313	0.3238049926757812	0		-0.5055971984863281	-3.016166748046875	0		2.449808349609375	-0.5603289184570313	0		3.769984375	-0.0816761474609375	0		5.1084873046875	-0.12534903717041015	0		5.90475244140625	0.3258087768554688	0		-0.26578750610351565	5.95227783203125	0		
0.0076927318572998045	-0.0023489930629730224	0		0.4630930480957031	-2.49431591796875	0		-0.9546876831054687	0.31883929443359377	0		-0.4985689697265625	-3.008228515625	0		2.441884033203125	-0.5512075805664063	0		3.775755615234375	-0.093775146484375	0		5.12052197265625	-0.11955518341064453	0		5.90125537109375	0.3431658630371094	0		-0.3008323364257813	5.94783203125	0		
-0.07240026092529298	-0.0031339991092681884	0		0.4380450439453125	-2.489918212890625	0		-1.0287470703125	0.3199801940917969	0		-0.5245068359375	-2.995802490234375	0		2.4757998046875	-0.5517076416015625	0		3.796650390625	-0.09610359191894531	0		5.14328369140625	-0.13093228149414063	0		5.9102119140625	0.2994997863769531	0		-0.2836846008300781	5.95662255859375	0		
0.014623811721801758	0.004622782230377197	0		0.46893096923828126	-2.48834375	0		-1.012916259765625	0.31480072021484373	0		-0.5223018798828125	-2.971787109375	0		2.487044189453125	-0.5278744506835937	0		3.8233994140625	-0.10652433013916016	0		5.15215185546875	-0.13311082458496093	0		5.91014013671875	0.2993971862792969	0		-0.2827149353027344	5.9546513671875	0		
-0.062477867126464845	0.006799323081970215	0		0.44181118774414063	-2.484912841796875	0		-1.02390185546875	0.32401992797851564	0		-0.5272404174804688	-2.95566552734375	0		2.523053955078125	-0.5184080200195312	0		3.830375244140625	-0.09965230560302735	0		5.17902197265625	-0.1335556182861328	0		5.9100498046875	0.2992937927246094	0		-0.2506392974853516	5.96122412109375	0		
0.007253645896911621	-0.002190412998199463	0		0.49047518920898436	-2.495600341796875	0		-0.96016455078125	0.31513433837890625	0		-0.5342085571289062	-2.940512939453125	0		2.546944580078125	-0.51576123046875	0		3.8369345703125	-0.11977301025390626	0		5.1837431640625	-0.14266976928710937	0		5.9028154296875	0.29945663452148436	0		-0.11834568786621094	5.98331787109375	0		
0.0071063761711120605	-0.0021475141048431395	0		0.4285054931640625	-2.480649169921875	0		-0.9603072509765626	0.3151912841796875	0		-0.537132080078125	-2.922419677734375	0		2.56900927734375	-0.5010821838378906	0		3.870737548828125	-0.12328813934326172	0		5.20645849609375	-0.15204115295410156	0		5.9027099609375	0.2993819580078125	0		-0.299962890625	5.94704296875	0		
0.003926537990570069	-0.0050603427886962895	0		0.473037841796875	-2.50127587890625	0		-1.0334310302734375	0.31632611083984374	0		-0.5950316162109375	-2.90351416015625	0		2.575044189453125	-0.48916183471679686	0		3.892568359375	-0.12561932373046875	0		5.222466796875	-0.1423015594482422	0		5.9099443359375	0.33193771362304686	0		-0.2838780517578125	5.9568515625	0		
